<svg xmlns="http://www.w3.org/2000/svg" xmlns:xlink="http://www.w3.org/1999/xlink" width="500" zoomAndPan="magnify" viewBox="0 0 375 292.499991" height="390" preserveAspectRatio="xMidYMid meet" version="1.0"><defs><clipPath id="c18ee7c23b"><path d="M 0.320312 0 L 374.679688 0 L 374.679688 292 L 0.320312 292 Z M 0.320312 0 " clip-rule="nonzero"/></clipPath><clipPath id="78aad84bbe"><path d="M 0.320312 0.117188 L 374.542969 0.117188 L 374.542969 291.964844 L 0.320312 291.964844 Z M 0.320312 0.117188 " clip-rule="nonzero"/></clipPath></defs><g clip-path="url(#c18ee7c23b)"><path fill="#ffffff" d="M 0.320312 0 L 374.679688 0 L 374.679688 299.488281 L 0.320312 299.488281 Z M 0.320312 0 " fill-opacity="1" fill-rule="nonzero"/><path fill="#ffffff" d="M 0.320312 0 L 374.679688 0 L 374.679688 292 L 0.320312 292 Z M 0.320312 0 " fill-opacity="1" fill-rule="nonzero"/><path fill="#ffffff" d="M 0.320312 0 L 374.679688 0 L 374.679688 292 L 0.320312 292 Z M 0.320312 0 " fill-opacity="1" fill-rule="nonzero"/></g><g clip-path="url(#78aad84bbe)"><path fill="#39becf" d="M 0.320312 291.964844 L 0.320312 0.105469 L 374.542969 0.105469 L 374.542969 291.964844 L 0.320312 291.964844 " fill-opacity="1" fill-rule="nonzero"/></g><path fill="#d2f0ec" d="M 353.433594 269.136719 L 21.429688 269.136719 L 21.429688 22.945312 L 353.433594 22.945312 L 353.433594 269.136719 " fill-opacity="1" fill-rule="nonzero"/><path fill="#2a303a" d="M 244.074219 241.140625 L 88.371094 207.949219 L 197.851562 99.230469 L 245.191406 146.074219 L 244.074219 241.140625 " fill-opacity="1" fill-rule="nonzero"/><path fill="#39becf" d="M 338.035156 254.457031 L 36.828125 254.457031 L 37.59375 196.839844 L 112.128906 123.921875 L 172.484375 183.679688 L 283.996094 74.429688 L 338.035156 127.304688 L 338.035156 254.457031 " fill-opacity="1" fill-rule="nonzero"/><path fill="#f9ab1c" d="M 111.507812 79.398438 C 111.507812 93.15625 100.367188 104.296875 86.621094 104.296875 C 72.828125 104.296875 61.695312 93.15625 61.695312 79.398438 C 61.695312 65.648438 72.828125 54.507812 86.621094 54.507812 C 100.367188 54.507812 111.507812 65.648438 111.507812 79.398438 " fill-opacity="1" fill-rule="nonzero"/></svg>