<svg width="49" height="38" viewBox="0 0 49 38" fill="none" xmlns="http://www.w3.org/2000/svg">
<g clip-path="url(#clip0_315_1257)">
<mask id="mask0_315_1257" style="mask-type:luminance" maskUnits="userSpaceOnUse" x="8" y="0" width="40" height="38">
<path d="M8.68896 0.429199H47.1421V37.87H8.68896V0.429199Z" fill="white"/>
</mask>
<g mask="url(#mask0_315_1257)">
<path d="M27.9154 0.423828C17.3225 0.423828 8.73193 8.80923 8.73193 19.1442C8.73193 29.4845 17.3225 37.8699 27.9154 37.8699C38.5137 37.8699 47.0989 29.4845 47.0989 19.1442C47.0989 8.80923 38.5137 0.423828 27.9154 0.423828ZM27.9154 34.8983C19.0019 34.8983 11.7731 27.8493 11.7731 19.1442C11.7731 10.4496 19.0019 3.39541 27.9154 3.39541C36.8344 3.39541 44.0578 10.4496 44.0578 19.1442C44.0578 27.8493 36.8344 34.8983 27.9154 34.8983Z" fill="#FB8C00"/>
</g>
<path d="M39.94 19.6057L39.9453 19.6005V19.5952C40.1983 19.3437 40.1983 18.9401 39.9453 18.699L30.5258 9.50654C30.402 9.38076 30.2352 9.31787 30.0683 9.31787C29.9015 9.31787 29.7346 9.38076 29.6054 9.50654L29.5947 9.51702C29.4709 9.63756 29.4009 9.80003 29.4009 9.96774V12.5096C29.4009 12.6825 29.4709 12.845 29.5947 12.9603L35.9299 19.1445L29.5947 25.3288C29.4709 25.4493 29.4009 25.6118 29.4009 25.7795V28.3265C29.4009 28.489 29.4709 28.6567 29.5947 28.772L29.6054 28.7877C29.7292 28.903 29.8961 28.9712 30.0683 28.9712C30.2406 28.9712 30.4074 28.903 30.5258 28.7877L39.94 19.6057Z" fill="#FB8C00"/>
<path d="M16.1224 19.6057L16.117 19.6005V19.5952C15.864 19.3437 15.864 18.9401 16.117 18.699L25.5311 9.50654C25.6603 9.38076 25.8272 9.31787 25.994 9.31787C26.1609 9.31787 26.3277 9.38076 26.4569 9.50654L26.4677 9.51702C26.5915 9.63756 26.6615 9.80003 26.6615 9.96774V12.5096C26.6615 12.6825 26.5915 12.845 26.4677 12.9603L20.1324 19.1445L26.4677 25.3288C26.5915 25.4493 26.6615 25.6118 26.6615 25.7795V28.3265C26.6615 28.489 26.5915 28.6567 26.4677 28.772L26.4569 28.7877C26.3331 28.903 26.1716 28.9712 25.994 28.9712C25.8218 28.9712 25.6549 28.903 25.5311 28.7877L16.1224 19.6057Z" fill="#FB8C00"/>
</g>
<defs>
<clipPath id="clip0_315_1257">
<rect width="48.3447" height="37.835" fill="white"/>
</clipPath>
</defs>
</svg>
