<svg width="207" height="36" viewBox="0 0 207 36" fill="none" xmlns="http://www.w3.org/2000/svg">
<g clip-path="url(#clip0_343_66)">
<mask id="mask0_343_66" style="mask-type:luminance" maskUnits="userSpaceOnUse" x="8" y="0" width="38" height="37">
<path d="M8.76733 0.408203H45.3555V36.0332H8.76733V0.408203Z" fill="white"/>
</mask>
<g mask="url(#mask0_343_66)">
<path d="M27.0614 0.40332C16.9822 0.40332 8.80829 8.38204 8.80829 18.2158C8.80829 28.0546 16.9822 36.0333 27.0614 36.0333C37.1457 36.0333 45.3145 28.0546 45.3145 18.2158C45.3145 8.38204 37.1457 0.40332 27.0614 0.40332ZM27.0614 33.2058C18.5802 33.2058 11.702 26.4987 11.702 18.2158C11.702 9.94288 18.5802 3.23078 27.0614 3.23078C35.5478 3.23078 42.4209 9.94288 42.4209 18.2158C42.4209 26.4987 35.5478 33.2058 27.0614 33.2058Z" fill="#FB8C00"/>
</g>
<path d="M38.5029 18.6546L38.508 18.6496V18.6446C38.7488 18.4053 38.7488 18.0213 38.508 17.7919L29.5454 9.04524C29.4276 8.92556 29.2688 8.86572 29.11 8.86572C28.9513 8.86572 28.7925 8.92556 28.6696 9.04524L28.6594 9.05522C28.5416 9.16991 28.475 9.3245 28.475 9.48407V11.9026C28.475 12.0672 28.5416 12.2218 28.6594 12.3315L34.6874 18.2158L28.6594 24.1001C28.5416 24.2148 28.475 24.3694 28.475 24.529V26.9525C28.475 27.1071 28.5416 27.2667 28.6594 27.3764L28.6696 27.3913C28.7874 27.501 28.9462 27.5659 29.11 27.5659C29.2739 27.5659 29.4327 27.501 29.5454 27.3913L38.5029 18.6546Z" fill="#FB8C00"/>
<path d="M15.8402 18.6546L15.8351 18.6496V18.6446C15.5944 18.4053 15.5944 18.0213 15.8351 17.7919L24.7926 9.04524C24.9155 8.92556 25.0743 8.86572 25.2331 8.86572C25.3918 8.86572 25.5506 8.92556 25.6735 9.04524L25.6838 9.05522C25.8016 9.16991 25.8681 9.3245 25.8681 9.48407V11.9026C25.8681 12.0672 25.8016 12.2218 25.6838 12.3315L19.6557 18.2158L25.6838 24.1001C25.8016 24.2148 25.8681 24.3694 25.8681 24.529V26.9525C25.8681 27.1071 25.8016 27.2667 25.6838 27.3764L25.6735 27.3913C25.5557 27.501 25.4021 27.5659 25.2331 27.5659C25.0692 27.5659 24.9104 27.501 24.7926 27.3913L15.8402 18.6546Z" fill="#FB8C00"/>
</g>
<path d="M62.224 27.336C60.2267 27.336 58.5187 26.9907 57.1 26.3C55.6813 25.5907 54.5987 24.4987 53.852 23.024C53.124 21.5493 52.76 19.6733 52.76 17.396C52.76 14.036 53.5813 11.544 55.224 9.92C56.8853 8.27733 59.2187 7.456 62.224 7.456C63.8667 7.456 65.3413 7.736 66.648 8.296C67.9547 8.856 68.9813 9.696 69.728 10.816C70.4933 11.936 70.876 13.3453 70.876 15.044H66.676C66.676 14.148 66.4893 13.392 66.116 12.776C65.7613 12.16 65.248 11.6933 64.576 11.376C63.9227 11.04 63.1573 10.872 62.28 10.872C61.0853 10.872 60.096 11.1053 59.312 11.572C58.5467 12.0387 57.9773 12.7293 57.604 13.644C57.2493 14.54 57.072 15.6413 57.072 16.948V17.816C57.072 19.16 57.2587 20.2893 57.632 21.204C58.0053 22.1 58.5653 22.7813 59.312 23.248C60.0773 23.696 61.0573 23.92 62.252 23.92C63.1853 23.92 63.9973 23.7613 64.688 23.444C65.3787 23.1267 65.9107 22.66 66.284 22.044C66.6573 21.428 66.844 20.672 66.844 19.776H70.876C70.876 21.4747 70.5027 22.884 69.756 24.004C69.028 25.124 68.0107 25.964 66.704 26.524C65.3973 27.0653 63.904 27.336 62.224 27.336ZM80.6032 27.336C78.9978 27.336 77.6352 27.0653 76.5152 26.524C75.3952 25.964 74.5458 25.1147 73.9672 23.976C73.3885 22.8187 73.0992 21.372 73.0992 19.636C73.0992 17.8627 73.3885 16.416 73.9672 15.296C74.5458 14.1573 75.3952 13.3173 76.5152 12.776C77.6352 12.216 78.9978 11.936 80.6032 11.936C82.2458 11.936 83.6178 12.216 84.7192 12.776C85.8392 13.3173 86.6885 14.1573 87.2672 15.296C87.8458 16.416 88.1352 17.8627 88.1352 19.636C88.1352 21.372 87.8458 22.8187 87.2672 23.976C86.6885 25.1147 85.8392 25.964 84.7192 26.524C83.6178 27.0653 82.2458 27.336 80.6032 27.336ZM80.6032 24.312C81.4618 24.312 82.1432 24.1533 82.6472 23.836C83.1698 23.5187 83.5525 23.0333 83.7952 22.38C84.0378 21.7267 84.1592 20.924 84.1592 19.972V19.3C84.1592 18.348 84.0378 17.5453 83.7952 16.892C83.5525 16.2387 83.1698 15.7533 82.6472 15.436C82.1432 15.1 81.4618 14.932 80.6032 14.932C79.7632 14.932 79.0818 15.1 78.5592 15.436C78.0552 15.7533 77.6818 16.2387 77.4392 16.892C77.1965 17.5453 77.0752 18.348 77.0752 19.3V19.972C77.0752 20.924 77.1965 21.7267 77.4392 22.38C77.6818 23.0333 78.0552 23.5187 78.5592 23.836C79.0818 24.1533 79.7632 24.312 80.6032 24.312ZM96.207 27.336C94.9937 27.336 93.939 27.0653 93.043 26.524C92.1657 25.964 91.4844 25.1147 90.999 23.976C90.5137 22.8373 90.271 21.3813 90.271 19.608C90.271 17.8347 90.5137 16.388 90.999 15.268C91.503 14.1293 92.1844 13.2893 93.043 12.748C93.9204 12.2067 94.9284 11.936 96.067 11.936C96.7017 11.936 97.2897 12.0107 97.831 12.16C98.391 12.2907 98.8764 12.5053 99.287 12.804C99.7164 13.1027 100.08 13.4667 100.379 13.896H100.547V6.756H104.439V27H101.247L100.939 25.012H100.743C100.258 25.796 99.623 26.384 98.839 26.776C98.055 27.1493 97.1777 27.336 96.207 27.336ZM97.439 24.144C98.167 24.144 98.755 23.976 99.203 23.64C99.6697 23.304 100.015 22.8187 100.239 22.184C100.463 21.5493 100.575 20.7933 100.575 19.916V19.412C100.575 18.7587 100.51 18.1613 100.379 17.62C100.267 17.0787 100.08 16.6307 99.819 16.276C99.5577 15.9027 99.231 15.6227 98.839 15.436C98.447 15.2307 97.9804 15.128 97.439 15.128C96.655 15.128 96.0297 15.2867 95.563 15.604C95.0964 15.9027 94.7604 16.3693 94.555 17.004C94.3497 17.62 94.247 18.3947 94.247 19.328V19.972C94.247 20.9053 94.3497 21.68 94.555 22.296C94.7604 22.912 95.0964 23.3787 95.563 23.696C96.0297 23.9947 96.655 24.144 97.439 24.144ZM114.726 27.336C113.102 27.336 111.74 27.0653 110.638 26.524C109.537 25.964 108.706 25.1147 108.146 23.976C107.586 22.8373 107.306 21.3907 107.306 19.636C107.306 17.8627 107.586 16.416 108.146 15.296C108.706 14.1573 109.528 13.3173 110.61 12.776C111.712 12.216 113.056 11.936 114.642 11.936C116.136 11.936 117.396 12.2067 118.422 12.748C119.449 13.2707 120.224 14.092 120.746 15.212C121.269 16.3133 121.53 17.7413 121.53 19.496V20.504H111.254C111.292 21.3627 111.422 22.0907 111.646 22.688C111.889 23.2853 112.253 23.7333 112.738 24.032C113.242 24.312 113.905 24.452 114.726 24.452C115.174 24.452 115.576 24.396 115.93 24.284C116.304 24.172 116.621 24.004 116.882 23.78C117.144 23.556 117.349 23.276 117.498 22.94C117.648 22.604 117.722 22.2213 117.722 21.792H121.53C121.53 22.7253 121.362 23.5373 121.026 24.228C120.69 24.9187 120.224 25.4973 119.626 25.964C119.029 26.412 118.31 26.7573 117.47 27C116.649 27.224 115.734 27.336 114.726 27.336ZM111.31 18.04H117.526C117.526 17.48 117.452 16.9947 117.302 16.584C117.172 16.1733 116.985 15.8373 116.742 15.576C116.5 15.3147 116.201 15.128 115.846 15.016C115.51 14.8853 115.128 14.82 114.698 14.82C113.989 14.82 113.392 14.9413 112.906 15.184C112.44 15.408 112.076 15.7627 111.814 16.248C111.572 16.7147 111.404 17.312 111.31 18.04ZM138.814 27.336C136.817 27.336 135.109 26.9907 133.69 26.3C132.271 25.5907 131.189 24.4987 130.442 23.024C129.714 21.5493 129.35 19.6733 129.35 17.396C129.35 14.036 130.171 11.544 131.814 9.92C133.475 8.27733 135.809 7.456 138.814 7.456C140.457 7.456 141.931 7.736 143.238 8.296C144.545 8.856 145.571 9.696 146.318 10.816C147.083 11.936 147.466 13.3453 147.466 15.044H143.266C143.266 14.148 143.079 13.392 142.706 12.776C142.351 12.16 141.838 11.6933 141.166 11.376C140.513 11.04 139.747 10.872 138.87 10.872C137.675 10.872 136.686 11.1053 135.902 11.572C135.137 12.0387 134.567 12.7293 134.194 13.644C133.839 14.54 133.662 15.6413 133.662 16.948V17.816C133.662 19.16 133.849 20.2893 134.222 21.204C134.595 22.1 135.155 22.7813 135.902 23.248C136.667 23.696 137.647 23.92 138.842 23.92C139.775 23.92 140.587 23.7613 141.278 23.444C141.969 23.1267 142.501 22.66 142.874 22.044C143.247 21.428 143.434 20.672 143.434 19.776H147.466C147.466 21.4747 147.093 22.884 146.346 24.004C145.618 25.124 144.601 25.964 143.294 26.524C141.987 27.0653 140.494 27.336 138.814 27.336ZM150.417 10.116V6.756H154.309V10.116H150.417ZM150.417 27V12.272H154.309V27H150.417ZM157.882 27V12.272H161.102L161.41 14.568H161.606C161.793 14.0827 162.035 13.644 162.334 13.252C162.633 12.8413 163.006 12.5147 163.454 12.272C163.902 12.0293 164.425 11.908 165.022 11.908C165.339 11.908 165.629 11.9453 165.89 12.02C166.151 12.076 166.347 12.132 166.478 12.188V15.716H165.274C164.695 15.716 164.182 15.8 163.734 15.968C163.305 16.1173 162.941 16.36 162.642 16.696C162.343 17.032 162.119 17.4427 161.97 17.928C161.839 18.4133 161.774 18.9827 161.774 19.636V27H157.882ZM174.713 27.336C173.145 27.336 171.829 27.0653 170.765 26.524C169.701 25.964 168.889 25.1147 168.329 23.976C167.788 22.8187 167.517 21.372 167.517 19.636C167.517 17.8627 167.788 16.416 168.329 15.296C168.889 14.1573 169.701 13.308 170.765 12.748C171.848 12.188 173.164 11.908 174.713 11.908C175.721 11.908 176.626 12.0293 177.429 12.272C178.25 12.5147 178.96 12.888 179.557 13.392C180.154 13.896 180.602 14.5213 180.901 15.268C181.218 15.996 181.377 16.864 181.377 17.872H177.485C177.485 17.2 177.382 16.6493 177.177 16.22C176.972 15.7907 176.654 15.464 176.225 15.24C175.814 15.016 175.292 14.904 174.657 14.904C173.91 14.904 173.304 15.072 172.837 15.408C172.37 15.744 172.025 16.2387 171.801 16.892C171.577 17.5453 171.465 18.3573 171.465 19.328V19.972C171.465 20.924 171.577 21.7267 171.801 22.38C172.044 23.0333 172.408 23.528 172.893 23.864C173.378 24.1813 174.013 24.34 174.797 24.34C175.432 24.34 175.954 24.228 176.365 24.004C176.794 23.78 177.121 23.444 177.345 22.996C177.569 22.548 177.681 22.0067 177.681 21.372H181.377C181.377 22.324 181.218 23.1733 180.901 23.92C180.602 24.6667 180.154 25.292 179.557 25.796C178.978 26.3 178.278 26.6827 177.457 26.944C176.636 27.2053 175.721 27.336 174.713 27.336ZM184.296 27V6.756H188.188V27H184.296ZM198.453 27.336C196.829 27.336 195.466 27.0653 194.365 26.524C193.263 25.964 192.433 25.1147 191.873 23.976C191.313 22.8373 191.033 21.3907 191.033 19.636C191.033 17.8627 191.313 16.416 191.873 15.296C192.433 14.1573 193.254 13.3173 194.337 12.776C195.438 12.216 196.782 11.936 198.369 11.936C199.862 11.936 201.122 12.2067 202.149 12.748C203.175 13.2707 203.95 14.092 204.473 15.212C204.995 16.3133 205.257 17.7413 205.257 19.496V20.504H194.981C195.018 21.3627 195.149 22.0907 195.373 22.688C195.615 23.2853 195.979 23.7333 196.465 24.032C196.969 24.312 197.631 24.452 198.453 24.452C198.901 24.452 199.302 24.396 199.657 24.284C200.03 24.172 200.347 24.004 200.609 23.78C200.87 23.556 201.075 23.276 201.225 22.94C201.374 22.604 201.449 22.2213 201.449 21.792H205.257C205.257 22.7253 205.089 23.5373 204.753 24.228C204.417 24.9187 203.95 25.4973 203.353 25.964C202.755 26.412 202.037 26.7573 201.197 27C200.375 27.224 199.461 27.336 198.453 27.336ZM195.037 18.04H201.253C201.253 17.48 201.178 16.9947 201.029 16.584C200.898 16.1733 200.711 15.8373 200.469 15.576C200.226 15.3147 199.927 15.128 199.573 15.016C199.237 14.8853 198.854 14.82 198.425 14.82C197.715 14.82 197.118 14.9413 196.633 15.184C196.166 15.408 195.802 15.7627 195.541 16.248C195.298 16.7147 195.13 17.312 195.037 18.04Z" fill="white"/>
<defs>
<clipPath id="clip0_343_66">
<rect width="46" height="36" fill="white" transform="translate(0.5)"/>
</clipPath>
</defs>
</svg>
